<?xml version="1.0" standalone="no"?><!-- Generator: Gravit.io --><svg xmlns="http://www.w3.org/2000/svg" xmlns:xlink="http://www.w3.org/1999/xlink" style="isolation:isolate" viewBox="195 126 410 348" width="410" height="348"><path d=" M 250.2734375 387.4765625 Q 250.2734375 389.576171875 249.7119140625 391.3095703125 Q 249.150390625 393.04296875 248.173828125 394.2880859375 Q 247.197265625 395.533203125 245.78125 396.216796875 Q 244.365234375 396.900390625 242.705078125 396.900390625 Q 240.80078125 396.900390625 239.2626953125 396.0947265625 Q 237.724609375 395.2890625 236.6015625 393.775390625 Q 238.45703125 392.408203125 239.580078125 390.1376953125 Q 240.703125 387.8671875 240.703125 385.279296875 Q 240.703125 382.056640625 238.798828125 380.1767578125 Q 236.89453125 378.296875 233.57421875 378.296875 Q 231.572265625 378.296875 229.8876953125 379.0537109375 Q 228.203125 379.810546875 227.0068359375 381.1533203125 Q 225.810546875 382.49609375 225.1513671875 384.3515625 Q 224.4921875 386.20703125 224.4921875 388.404296875 Q 224.4921875 391.724609375 226.103515625 394.654296875 Q 227.71484375 397.583984375 230.15625 400.416015625 Q 232.59765625 403.248046875 235.4296875 406.1533203125 Q 238.26171875 409.05859375 240.703125 412.3544921875 Q 243.14453125 415.650390625 244.755859375 419.4833984375 Q 246.3671875 423.31640625 246.3671875 427.955078125 Q 246.3671875 432.88671875 244.31640625 437.0615234375 Q 242.265625 441.236328125 238.6279296875 444.2880859375 Q 234.990234375 447.33984375 230.0830078125 449.0732421875 Q 225.17578125 450.806640625 219.462890625 450.806640625 Q 214.677734375 450.806640625 210.7958984375 449.5615234375 Q 206.9140625 448.31640625 204.1552734375 445.9970703125 Q 201.396484375 443.677734375 199.8828125 440.455078125 Q 198.369140625 437.232421875 198.369140625 433.27734375 Q 198.369140625 429.95703125 199.443359375 427.076171875 Q 200.517578125 424.1953125 202.373046875 422.0712890625 Q 204.228515625 419.947265625 206.767578125 418.7265625 Q 209.306640625 417.505859375 212.1875 417.505859375 Q 215.703125 417.505859375 218.095703125 419.263671875 Q 220.48828125 421.021484375 221.07421875 424.09765625 Q 218.4375 424.09765625 216.337890625 424.830078125 Q 214.23828125 425.5625 212.7734375 426.880859375 Q 211.30859375 428.19921875 210.5029296875 430.0791015625 Q 209.697265625 431.958984375 209.697265625 434.302734375 Q 209.697265625 438.697265625 212.2607421875 441.2607421875 Q 214.82421875 443.82421875 219.169921875 443.82421875 Q 221.806640625 443.82421875 224.052734375 442.8720703125 Q 226.298828125 441.919921875 227.91015625 440.259765625 Q 229.521484375 438.599609375 230.44921875 436.3046875 Q 231.376953125 434.009765625 231.376953125 431.32421875 Q 231.376953125 428.58984375 230.4736328125 426.0751953125 Q 229.5703125 423.560546875 228.056640625 421.1923828125 Q 226.54296875 418.82421875 224.638671875 416.529296875 Q 222.734375 414.234375 220.732421875 411.9150390625 Q 218.73046875 409.595703125 216.826171875 407.251953125 Q 214.921875 404.908203125 213.408203125 402.4423828125 Q 211.89453125 399.9765625 210.9912109375 397.33984375 Q 210.087890625 394.703125 210.087890625 391.7734375 Q 210.087890625 387.818359375 211.7724609375 384.4736328125 Q 213.45703125 381.12890625 216.4599609375 378.6875 Q 219.462890625 376.24609375 223.564453125 374.8544921875 Q 227.666015625 373.462890625 232.5 373.462890625 Q 236.552734375 373.462890625 239.82421875 374.4638671875 Q 243.095703125 375.46484375 245.4150390625 377.2958984375 Q 247.734375 379.126953125 249.00390625 381.71484375 Q 250.2734375 384.302734375 250.2734375 387.4765625 Z  M 308.76953125 431.080078125 Q 307.353515625 435.1328125 305.693359375 438.111328125 Q 304.033203125 441.08984375 302.2509765625 443.140625 Q 300.46875 445.19140625 298.61328125 446.4609375 Q 296.7578125 447.73046875 295 448.4140625 Q 293.2421875 449.09765625 291.630859375 449.341796875 Q 290.01953125 449.5859375 288.701171875 449.5859375 Q 284.453125 449.5859375 281.9384765625 447.2666015625 Q 279.423828125 444.947265625 278.88671875 440.40625 Q 277.666015625 442.115234375 276.201171875 443.7509765625 Q 274.736328125 445.38671875 272.9296875 446.6806640625 Q 271.123046875 447.974609375 268.9013671875 448.7802734375 Q 266.6796875 449.5859375 263.994140625 449.5859375 Q 261.40625 449.5859375 259.013671875 448.755859375 Q 256.62109375 447.92578125 254.765625 446.021484375 Q 252.91015625 444.1171875 251.787109375 441.041015625 Q 250.6640625 437.96484375 250.6640625 433.521484375 Q 250.6640625 430.103515625 251.34765625 426.197265625 Q 252.03125 422.291015625 253.447265625 418.384765625 Q 254.86328125 414.478515625 256.9873046875 410.8896484375 Q 259.111328125 407.30078125 261.9677734375 404.5419921875 Q 264.82421875 401.783203125 268.4375 400.1474609375 Q 272.05078125 398.51171875 276.396484375 398.51171875 Q 280.64453125 398.51171875 282.5732421875 399.9765625 Q 284.501953125 401.44140625 284.501953125 403.58984375 L 284.501953125 404.322265625 L 285.576171875 399 L 299.98046875 399 L 292.802734375 432.984375 Q 292.55859375 433.814453125 292.4609375 434.6201171875 Q 292.36328125 435.42578125 292.36328125 436.20703125 Q 292.36328125 440.50390625 296.46484375 440.50390625 Q 297.9296875 440.50390625 299.1748046875 439.7470703125 Q 300.419921875 438.990234375 301.4453125 437.720703125 Q 302.470703125 436.451171875 303.251953125 434.7177734375 Q 304.033203125 432.984375 304.5703125 431.080078125 L 308.76953125 431.080078125 Z  M 283.57421875 408.521484375 Q 283.57421875 408.08203125 283.37890625 407.4228515625 Q 283.18359375 406.763671875 282.7197265625 406.1533203125 Q 282.255859375 405.54296875 281.474609375 405.1279296875 Q 280.693359375 404.712890625 279.47265625 404.712890625 Q 277.373046875 404.712890625 275.4931640625 406.080078125 Q 273.61328125 407.447265625 272.05078125 409.7177734375 Q 270.48828125 411.98828125 269.267578125 414.869140625 Q 268.046875 417.75 267.1923828125 420.8017578125 Q 266.337890625 423.853515625 265.8984375 426.8076171875 Q 265.458984375 429.76171875 265.458984375 432.10546875 Q 265.458984375 434.986328125 265.99609375 436.548828125 Q 266.533203125 438.111328125 267.2900390625 438.8681640625 Q 268.046875 439.625 268.92578125 439.771484375 Q 269.8046875 439.91796875 270.48828125 439.91796875 Q 271.611328125 439.91796875 272.8564453125 439.3564453125 Q 274.1015625 438.794921875 275.2490234375 437.6962890625 Q 276.396484375 436.59765625 277.3486328125 434.9375 Q 278.30078125 433.27734375 278.7890625 431.080078125 L 283.57421875 408.521484375 Z  M 335.478515625 431.080078125 Q 334.0625 435.1328125 332.3291015625 438.111328125 Q 330.595703125 441.08984375 328.7158203125 443.140625 Q 326.8359375 445.19140625 324.8583984375 446.4609375 Q 322.880859375 447.73046875 321.025390625 448.4140625 Q 319.169921875 449.09765625 317.4853515625 449.341796875 Q 315.80078125 449.5859375 314.482421875 449.5859375 Q 312.236328125 449.5859375 310.283203125 448.90234375 Q 308.330078125 448.21875 306.8896484375 446.75390625 Q 305.44921875 445.2890625 304.619140625 443.04296875 Q 303.7890625 440.796875 303.7890625 437.623046875 Q 303.7890625 436.255859375 303.984375 434.6201171875 Q 304.1796875 432.984375 304.5703125 431.080078125 L 315.263671875 380.982421875 L 330.05859375 378.98046875 L 318.583984375 432.984375 Q 318.33984375 433.814453125 318.2666015625 434.6201171875 Q 318.193359375 435.42578125 318.193359375 436.20703125 Q 318.193359375 438.306640625 319.169921875 439.1123046875 Q 320.146484375 439.91796875 322.24609375 439.91796875 Q 323.7109375 439.91796875 325.1025390625 439.2587890625 Q 326.494140625 438.599609375 327.666015625 437.427734375 Q 328.837890625 436.255859375 329.765625 434.6201171875 Q 330.693359375 432.984375 331.279296875 431.080078125 L 335.478515625 431.080078125 Z  M 373.076171875 431.080078125 Q 370.9765625 434.595703125 368.2666015625 437.916015625 Q 365.556640625 441.236328125 362.1630859375 443.82421875 Q 358.76953125 446.412109375 354.6435546875 447.9990234375 Q 350.517578125 449.5859375 345.5859375 449.5859375 Q 342.021484375 449.5859375 339.140625 448.6826171875 Q 336.259765625 447.779296875 334.208984375 445.875 Q 332.158203125 443.970703125 331.0595703125 440.9677734375 Q 329.9609375 437.96484375 329.9609375 433.716796875 Q 329.9609375 430.8359375 330.546875 427.076171875 Q 331.1328125 423.31640625 332.40234375 419.361328125 Q 333.671875 415.40625 335.771484375 411.59765625 Q 337.87109375 407.7890625 340.849609375 404.7861328125 Q 343.828125 401.783203125 347.83203125 399.9521484375 Q 351.8359375 398.12109375 356.962890625 398.12109375 Q 360.33203125 398.12109375 362.4560546875 398.9267578125 Q 364.580078125 399.732421875 365.8251953125 401.05078125 Q 367.0703125 402.369140625 367.5341796875 404.1025390625 Q 367.998046875 405.8359375 367.998046875 407.69140625 Q 367.998046875 412.037109375 366.09375 415.7724609375 Q 364.189453125 419.5078125 360.9912109375 422.291015625 Q 357.79296875 425.07421875 353.642578125 426.783203125 Q 349.4921875 428.4921875 345 428.78515625 Q 344.90234375 429.908203125 344.8291015625 430.9091796875 Q 344.755859375 431.91015625 344.755859375 432.7890625 Q 344.755859375 435.328125 345.2197265625 436.9638671875 Q 345.68359375 438.599609375 346.5869140625 439.52734375 Q 347.490234375 440.455078125 348.8330078125 440.8212890625 Q 350.17578125 441.1875 351.982421875 441.1875 Q 354.9609375 441.1875 357.3779296875 440.40625 Q 359.794921875 439.625 361.89453125 438.2578125 Q 363.994140625 436.890625 365.8740234375 435.03515625 Q 367.75390625 433.1796875 369.658203125 431.080078125 L 373.076171875 431.080078125 Z  M 345.78125 424 Q 348.61328125 423.8046875 351.25 422.388671875 Q 353.88671875 420.97265625 355.888671875 418.7021484375 Q 357.890625 416.431640625 359.0869140625 413.5263671875 Q 360.283203125 410.62109375 360.283203125 407.49609375 Q 360.283203125 405.640625 359.74609375 404.517578125 Q 359.208984375 403.39453125 357.79296875 403.39453125 Q 355.888671875 403.39453125 354.0576171875 405.2255859375 Q 352.2265625 407.056640625 350.615234375 409.986328125 Q 349.00390625 412.916015625 347.7587890625 416.6025390625 Q 346.513671875 420.2890625 345.78125 424 Z  M 424.931640625 387.4765625 Q 424.931640625 389.576171875 424.3701171875 391.3095703125 Q 423.80859375 393.04296875 422.83203125 394.2880859375 Q 421.85546875 395.533203125 420.439453125 396.216796875 Q 419.0234375 396.900390625 417.36328125 396.900390625 Q 415.458984375 396.900390625 413.9208984375 396.0947265625 Q 412.3828125 395.2890625 411.259765625 393.775390625 Q 413.115234375 392.408203125 414.23828125 390.1376953125 Q 415.361328125 387.8671875 415.361328125 385.279296875 Q 415.361328125 382.056640625 413.45703125 380.1767578125 Q 411.552734375 378.296875 408.232421875 378.296875 Q 406.23046875 378.296875 404.5458984375 379.0537109375 Q 402.861328125 379.810546875 401.6650390625 381.1533203125 Q 400.46875 382.49609375 399.8095703125 384.3515625 Q 399.150390625 386.20703125 399.150390625 388.404296875 Q 399.150390625 391.724609375 400.76171875 394.654296875 Q 402.373046875 397.583984375 404.814453125 400.416015625 Q 407.255859375 403.248046875 410.087890625 406.1533203125 Q 412.919921875 409.05859375 415.361328125 412.3544921875 Q 417.802734375 415.650390625 419.4140625 419.4833984375 Q 421.025390625 423.31640625 421.025390625 427.955078125 Q 421.025390625 432.88671875 418.974609375 437.0615234375 Q 416.923828125 441.236328125 413.2861328125 444.2880859375 Q 409.6484375 447.33984375 404.7412109375 449.0732421875 Q 399.833984375 450.806640625 394.12109375 450.806640625 Q 389.3359375 450.806640625 385.4541015625 449.5615234375 Q 381.572265625 448.31640625 378.8134765625 445.9970703125 Q 376.0546875 443.677734375 374.541015625 440.455078125 Q 373.02734375 437.232421875 373.02734375 433.27734375 Q 373.02734375 429.95703125 374.1015625 427.076171875 Q 375.17578125 424.1953125 377.03125 422.0712890625 Q 378.88671875 419.947265625 381.42578125 418.7265625 Q 383.96484375 417.505859375 386.845703125 417.505859375 Q 390.361328125 417.505859375 392.75390625 419.263671875 Q 395.146484375 421.021484375 395.732421875 424.09765625 Q 393.095703125 424.09765625 390.99609375 424.830078125 Q 388.896484375 425.5625 387.431640625 426.880859375 Q 385.966796875 428.19921875 385.1611328125 430.0791015625 Q 384.35546875 431.958984375 384.35546875 434.302734375 Q 384.35546875 438.697265625 386.9189453125 441.2607421875 Q 389.482421875 443.82421875 393.828125 443.82421875 Q 396.46484375 443.82421875 398.7109375 442.8720703125 Q 400.95703125 441.919921875 402.568359375 440.259765625 Q 404.1796875 438.599609375 405.107421875 436.3046875 Q 406.03515625 434.009765625 406.03515625 431.32421875 Q 406.03515625 428.58984375 405.1318359375 426.0751953125 Q 404.228515625 423.560546875 402.71484375 421.1923828125 Q 401.201171875 418.82421875 399.296875 416.529296875 Q 397.392578125 414.234375 395.390625 411.9150390625 Q 393.388671875 409.595703125 391.484375 407.251953125 Q 389.580078125 404.908203125 388.06640625 402.4423828125 Q 386.552734375 399.9765625 385.6494140625 397.33984375 Q 384.74609375 394.703125 384.74609375 391.7734375 Q 384.74609375 387.818359375 386.4306640625 384.4736328125 Q 388.115234375 381.12890625 391.1181640625 378.6875 Q 394.12109375 376.24609375 398.22265625 374.8544921875 Q 402.32421875 373.462890625 407.158203125 373.462890625 Q 411.2109375 373.462890625 414.482421875 374.4638671875 Q 417.75390625 375.46484375 420.0732421875 377.2958984375 Q 422.392578125 379.126953125 423.662109375 381.71484375 Q 424.931640625 384.302734375 424.931640625 387.4765625 Z  M 417.55859375 474 L 434.2578125 395.2890625 L 448.662109375 395.2890625 L 447.05078125 402.80859375 Q 449.248046875 400.953125 452.080078125 399.732421875 Q 454.912109375 398.51171875 458.720703125 398.51171875 Q 461.259765625 398.51171875 463.505859375 399.3173828125 Q 465.751953125 400.123046875 467.3876953125 401.9541015625 Q 469.0234375 403.78515625 469.9755859375 406.8125 Q 470.927734375 409.83984375 470.927734375 414.283203125 Q 470.927734375 417.65234375 470.4638671875 421.5830078125 Q 470 425.513671875 468.876953125 429.4443359375 Q 467.75390625 433.375 465.9228515625 437.0126953125 Q 464.091796875 440.650390625 461.357421875 443.43359375 Q 458.623046875 446.216796875 454.8876953125 447.9013671875 Q 451.15234375 449.5859375 446.318359375 449.5859375 Q 444.4140625 449.5859375 442.998046875 449.29296875 Q 441.58203125 449 440.5810546875 448.51171875 Q 439.580078125 448.0234375 438.9208984375 447.3642578125 Q 438.26171875 446.705078125 437.822265625 446.021484375 L 432.646484375 470.38671875 L 417.55859375 474 Z  M 439.43359375 438.599609375 Q 439.7265625 439.4296875 440.6298828125 440.162109375 Q 441.533203125 440.89453125 443.2421875 440.89453125 Q 445.87890625 440.89453125 447.9296875 439.5517578125 Q 449.98046875 438.208984375 451.54296875 435.9873046875 Q 453.10546875 433.765625 454.1796875 430.93359375 Q 455.25390625 428.1015625 455.9375 425.123046875 Q 456.62109375 422.14453125 456.9384765625 419.2392578125 Q 457.255859375 416.333984375 457.255859375 413.990234375 Q 457.255859375 411.109375 456.71875 409.44921875 Q 456.181640625 407.7890625 455.4248046875 406.958984375 Q 454.66796875 406.12890625 453.7890625 405.9091796875 Q 452.91015625 405.689453125 452.2265625 405.689453125 Q 450.517578125 405.689453125 448.6376953125 406.9345703125 Q 446.7578125 408.1796875 445.341796875 410.62109375 L 439.43359375 438.599609375 Z  M 530.205078125 431.080078125 Q 528.7890625 435.1328125 527.12890625 438.111328125 Q 525.46875 441.08984375 523.6865234375 443.140625 Q 521.904296875 445.19140625 520.048828125 446.4609375 Q 518.193359375 447.73046875 516.435546875 448.4140625 Q 514.677734375 449.09765625 513.06640625 449.341796875 Q 511.455078125 449.5859375 510.13671875 449.5859375 Q 505.888671875 449.5859375 503.3740234375 447.2666015625 Q 500.859375 444.947265625 500.322265625 440.40625 Q 499.1015625 442.115234375 497.63671875 443.7509765625 Q 496.171875 445.38671875 494.365234375 446.6806640625 Q 492.55859375 447.974609375 490.3369140625 448.7802734375 Q 488.115234375 449.5859375 485.4296875 449.5859375 Q 482.841796875 449.5859375 480.44921875 448.755859375 Q 478.056640625 447.92578125 476.201171875 446.021484375 Q 474.345703125 444.1171875 473.22265625 441.041015625 Q 472.099609375 437.96484375 472.099609375 433.521484375 Q 472.099609375 430.103515625 472.783203125 426.197265625 Q 473.466796875 422.291015625 474.8828125 418.384765625 Q 476.298828125 414.478515625 478.4228515625 410.8896484375 Q 480.546875 407.30078125 483.4033203125 404.5419921875 Q 486.259765625 401.783203125 489.873046875 400.1474609375 Q 493.486328125 398.51171875 497.83203125 398.51171875 Q 502.080078125 398.51171875 504.0087890625 399.9765625 Q 505.9375 401.44140625 505.9375 403.58984375 L 505.9375 404.322265625 L 507.01171875 399 L 521.416015625 399 L 514.23828125 432.984375 Q 513.994140625 433.814453125 513.896484375 434.6201171875 Q 513.798828125 435.42578125 513.798828125 436.20703125 Q 513.798828125 440.50390625 517.900390625 440.50390625 Q 519.365234375 440.50390625 520.6103515625 439.7470703125 Q 521.85546875 438.990234375 522.880859375 437.720703125 Q 523.90625 436.451171875 524.6875 434.7177734375 Q 525.46875 432.984375 526.005859375 431.080078125 L 530.205078125 431.080078125 Z  M 505.009765625 408.521484375 Q 505.009765625 408.08203125 504.814453125 407.4228515625 Q 504.619140625 406.763671875 504.1552734375 406.1533203125 Q 503.69140625 405.54296875 502.91015625 405.1279296875 Q 502.12890625 404.712890625 500.908203125 404.712890625 Q 498.80859375 404.712890625 496.9287109375 406.080078125 Q 495.048828125 407.447265625 493.486328125 409.7177734375 Q 491.923828125 411.98828125 490.703125 414.869140625 Q 489.482421875 417.75 488.6279296875 420.8017578125 Q 487.7734375 423.853515625 487.333984375 426.8076171875 Q 486.89453125 429.76171875 486.89453125 432.10546875 Q 486.89453125 434.986328125 487.431640625 436.548828125 Q 487.96875 438.111328125 488.7255859375 438.8681640625 Q 489.482421875 439.625 490.361328125 439.771484375 Q 491.240234375 439.91796875 491.923828125 439.91796875 Q 493.046875 439.91796875 494.2919921875 439.3564453125 Q 495.537109375 438.794921875 496.6845703125 437.6962890625 Q 497.83203125 436.59765625 498.7841796875 434.9375 Q 499.736328125 433.27734375 500.224609375 431.080078125 L 505.009765625 408.521484375 Z  M 567.802734375 431.080078125 Q 565.703125 434.595703125 562.9931640625 437.916015625 Q 560.283203125 441.236328125 556.8896484375 443.82421875 Q 553.49609375 446.412109375 549.3701171875 447.9990234375 Q 545.244140625 449.5859375 540.3125 449.5859375 Q 536.748046875 449.5859375 533.8671875 448.6826171875 Q 530.986328125 447.779296875 528.935546875 445.875 Q 526.884765625 443.970703125 525.7861328125 440.9677734375 Q 524.6875 437.96484375 524.6875 433.716796875 Q 524.6875 430.8359375 525.2734375 427.0517578125 Q 525.859375 423.267578125 527.1533203125 419.3125 Q 528.447265625 415.357421875 530.5224609375 411.548828125 Q 532.59765625 407.740234375 535.6005859375 404.76171875 Q 538.603515625 401.783203125 542.55859375 399.9521484375 Q 546.513671875 398.12109375 551.591796875 398.12109375 Q 554.912109375 398.12109375 557.060546875 398.9267578125 Q 559.208984375 399.732421875 560.478515625 401.0263671875 Q 561.748046875 402.3203125 562.236328125 403.98046875 Q 562.724609375 405.640625 562.724609375 407.30078125 Q 562.724609375 409.15625 562.3095703125 410.4990234375 Q 561.89453125 411.841796875 561.162109375 412.76953125 Q 560.4296875 413.697265625 559.453125 414.13671875 Q 558.4765625 414.576171875 557.40234375 414.576171875 Q 555.693359375 414.576171875 553.88671875 413.404296875 Q 555.107421875 410.181640625 555.107421875 407.49609375 Q 555.107421875 405.640625 554.423828125 404.517578125 Q 553.740234375 403.39453125 552.32421875 403.39453125 Q 550.76171875 403.39453125 549.19921875 404.810546875 Q 547.63671875 406.2265625 546.1962890625 408.5703125 Q 544.755859375 410.9140625 543.53515625 413.94140625 Q 542.314453125 416.96875 541.4111328125 420.240234375 Q 540.5078125 423.51171875 539.9951171875 426.7587890625 Q 539.482421875 430.005859375 539.482421875 432.7890625 Q 539.482421875 435.328125 539.9462890625 436.9638671875 Q 540.41015625 438.599609375 541.3134765625 439.52734375 Q 542.216796875 440.455078125 543.5595703125 440.8212890625 Q 544.90234375 441.1875 546.708984375 441.1875 Q 549.6875 441.1875 552.1044921875 440.40625 Q 554.521484375 439.625 556.62109375 438.2578125 Q 558.720703125 436.890625 560.6005859375 435.03515625 Q 562.48046875 433.1796875 564.384765625 431.080078125 L 567.802734375 431.080078125 Z  M 606.181640625 431.080078125 Q 604.08203125 434.595703125 601.3720703125 437.916015625 Q 598.662109375 441.236328125 595.2685546875 443.82421875 Q 591.875 446.412109375 587.7490234375 447.9990234375 Q 583.623046875 449.5859375 578.69140625 449.5859375 Q 575.126953125 449.5859375 572.24609375 448.6826171875 Q 569.365234375 447.779296875 567.314453125 445.875 Q 565.263671875 443.970703125 564.1650390625 440.9677734375 Q 563.06640625 437.96484375 563.06640625 433.716796875 Q 563.06640625 430.8359375 563.65234375 427.076171875 Q 564.23828125 423.31640625 565.5078125 419.361328125 Q 566.77734375 415.40625 568.876953125 411.59765625 Q 570.9765625 407.7890625 573.955078125 404.7861328125 Q 576.93359375 401.783203125 580.9375 399.9521484375 Q 584.94140625 398.12109375 590.068359375 398.12109375 Q 593.4375 398.12109375 595.5615234375 398.9267578125 Q 597.685546875 399.732421875 598.9306640625 401.05078125 Q 600.17578125 402.369140625 600.6396484375 404.1025390625 Q 601.103515625 405.8359375 601.103515625 407.69140625 Q 601.103515625 412.037109375 599.19921875 415.7724609375 Q 597.294921875 419.5078125 594.0966796875 422.291015625 Q 590.8984375 425.07421875 586.748046875 426.783203125 Q 582.59765625 428.4921875 578.10546875 428.78515625 Q 578.0078125 429.908203125 577.9345703125 430.9091796875 Q 577.861328125 431.91015625 577.861328125 432.7890625 Q 577.861328125 435.328125 578.3251953125 436.9638671875 Q 578.7890625 438.599609375 579.6923828125 439.52734375 Q 580.595703125 440.455078125 581.9384765625 440.8212890625 Q 583.28125 441.1875 585.087890625 441.1875 Q 588.06640625 441.1875 590.4833984375 440.40625 Q 592.900390625 439.625 595 438.2578125 Q 597.099609375 436.890625 598.9794921875 435.03515625 Q 600.859375 433.1796875 602.763671875 431.080078125 L 606.181640625 431.080078125 Z  M 578.88671875 424 Q 581.71875 423.8046875 584.35546875 422.388671875 Q 586.9921875 420.97265625 588.994140625 418.7021484375 Q 590.99609375 416.431640625 592.1923828125 413.5263671875 Q 593.388671875 410.62109375 593.388671875 407.49609375 Q 593.388671875 405.640625 592.8515625 404.517578125 Q 592.314453125 403.39453125 590.8984375 403.39453125 Q 588.994140625 403.39453125 587.1630859375 405.2255859375 Q 585.33203125 407.056640625 583.720703125 409.986328125 Q 582.109375 412.916015625 580.8642578125 416.6025390625 Q 579.619140625 420.2890625 578.88671875 424 Z " fill-rule="evenodd" fill="rgb(255,255,255)" stroke-width="1" stroke="rgba(0,0,0,0)" stroke-linejoin="miter" stroke-linecap="square"/><path d=" M 400.8194886937808 126 C 379.7910722410995 126 360.46352509128985 132.46770798634057 344.89617855894926 142.5406973638234 C 341.5205838375816 144.72073488502252 340.21285131455966 148.44274283516194 341.48301878546187 152.25507518067207 C 341.9689376349569 153.7128317291571 342.00812028907535 153.72535939078972 342.00812028907535 155.40568420235275 C 342.00812028907535 162.76710738638172 336.7671073863817 168.00812028907532 329.40568420235275 168.00812028907532 C 327.7253593907897 168.00812028907532 327.71283172915713 167.9689376349569 326.25507518067207 167.4830187854619 C 322.44274283516194 166.21285131455966 318.7207348850225 167.52058383758163 316.5406973638234 170.89617855894926 C 306.4677079863406 186.46352509128985 300 205.79107224109953 300 226.81948869378078 C 300 282.56862476026976 345.0703517871294 327.63897738756157 400.8194886937808 327.63897738756157 C 450.233480958963 327.63897738756157 491.53411728937783 292.0443964538765 499.8011221249145 245.19804132025126 C 500.39896959501505 242.14476417477186 499.65961302374797 239.7623930006892 497.43816535865403 237.58406951785634 C 494.8215803653362 234.96748452453852 493.2373533297465 231.4403819255791 493.2373533297465 226.81948869378078 C 493.2373533297465 222.1985954619825 494.8215803653362 218.67149286302305 497.43816535865403 216.05490786970523 C 499.65961302374797 213.87658438687242 500.39896959501505 211.4942132127897 499.8011221249145 208.4409360673103 C 490.6597350688089 161.81984275743602 450.233480958963 126 400.8194886937808 126 Z  M 400.8194886937808 142.80324811563014 C 403.33961464129084 142.80324811563014 405.71666933272036 142.84795567772898 408.170909744369 143.06579886743685 C 416.3211404071261 151.10162629572352 423.1583988686241 160.26085336035356 428.6498683852932 170.63362780714255 C 431.17035560263776 168.95330299557952 435.2661473308226 168.00812028907532 438.6267969539486 168.00812028907532 C 450.38907063488966 168.00812028907532 459.6308570984863 177.2499067526719 459.6308570984863 189.012180433613 C 459.6308570984863 199.9342917087726 452.17441574717543 208.33591576658768 441.2523044720158 210.01624057815064 C 442.0924668777973 215.8973774186212 442.82760898285613 220.93835185331025 442.82760898285613 226.81948869378078 C 442.82760898285613 259.9008834214276 429.2963985614142 289.1506754893876 407.9083589925623 310.57317852012477 C 405.53471536050023 310.77730437823345 403.24954923139103 310.8357292719314 400.8194886937808 310.8357292719314 C 354.06881209508833 310.8357292719314 316.80324811563014 273.5701661326357 316.80324811563014 226.81948869378078 C 316.80324811563014 211.03179528776312 321.4089755758417 196.7531469844538 328.35548119512583 184.54881765289875 C 328.60795587920006 184.55307895662088 329.1990370168643 184.81136840470546 329.40568420235275 184.81136840470546 C 345.5688083802059 184.81136840470546 358.8113684047055 171.5688083802059 358.8113684047055 155.40568420235275 C 358.8113684047055 155.1990370168643 358.5530789566209 154.60795587920003 358.5488176528987 154.35548119512583 C 370.7531469844538 147.40897557584165 385.0317952877631 142.80324811563014 400.8194886937808 142.80324811563014 Z  M 389.2672556142851 178.51015036134416 C 379.66445976654825 178.2574454727708 370.20607103311715 184.44379735217603 368.0006447179407 194.0006447179407 C 365.4801575005962 204.92275599310028 372.3064770475709 216.68502967404135 383.2285883227305 219.20551689138588 C 385.749075540075 220.0456792971674 389.109725163201 220.0456792971674 391.6302123805456 219.20551689138588 C 384.9089131342935 214.16454245669684 381.49575336080613 205.76291839888177 384.01624057815064 198.20145674684824 C 385.69656538971367 189.79983268903317 392.4178646359657 184.07622629964663 400.8194886937808 183.23606389386515 C 398.2990014764363 181.55573908230213 396.5661665145119 179.8754142707391 393.20551689138586 179.03525186495762 C 391.84025298199094 178.72019096278956 390.63908119206917 178.54625129975818 389.2672556142851 178.51015036134416 Z  M 353.29780261676433 235.22111275159585 C 352.14257930881473 235.32613305231854 350.8823357001425 235.58868380412525 349.6220920914702 236.00876500701602 C 342.9007928452182 238.52925222436056 339.4876330717308 246.14322402675546 342.00812028907535 252.024360867226 C 344.52860750641986 258.74566011347804 352.14257930881473 262.15881988696543 358.0237161492853 259.6383326696209 C 360.54420336662986 258.7981702638394 362.1720180278315 257.11784545227636 363.012180433613 255.43752064071336 C 359.651530810487 255.43752064071336 356.2908811873609 252.024360867226 354.61055637579796 247.82354883831846 C 352.93023156423493 243.62273680941092 353.66537366929373 238.5817623747219 356.18586088663824 235.22111275159585 C 355.34569848085675 235.22111275159585 354.45302592471387 235.11609245087317 353.29780261676433 235.22111275159585 Z  M 458.05555258764593 252.024360867226 L 459.6308570984863 252.024360867226 C 466.3521563447383 255.38501049035202 469.71280596786437 262.9464721423856 468.0324811563013 268.82760898285613 C 465.51199393895683 275.5489082291082 458.73818454234345 278.9620680025955 452.01688529609135 276.44158078525106 C 451.17672289030986 276.44158078525106 451.28174319103255 276.49409093561235 450.44158078525106 275.65392852983086 C 454.6423928141586 273.9736037182679 457.95053228692325 270.4554236440578 459.6308570984863 265.41444920936874 C 461.3111819100493 260.3734747746797 460.5760398049905 256.22517289613353 458.05555258764593 252.024360867226 Z  M 390.8425601251254 258.8506804142007 C 388.32207290778086 258.8506804142007 384.96142328465487 259.53331236889824 382.4409360673103 261.2136371804612 C 374.8794744152768 266.2546116151503 372.35898719793227 277.28174319103255 378.24012403840277 284.84320484306613 C 383.28109847309184 292.4046664950996 394.0456792971674 294.92515371244417 401.6071409492009 289.04401687197367 C 404.1276281665455 287.3636920604106 405.96548342919255 284.73818454234345 407.6458082407555 282.2176973249989 C 401.764671400285 283.0578597307804 394.9908620036716 280.6949029645199 391.6302123805456 275.65392852983086 C 388.2695627574195 270.61295409514184 388.32207290778086 263.8916548488898 390.8425601251254 258.8506804142007 Z " fill-rule="evenodd" fill="rgb(255,255,255)" stroke-width="3.8461538461538463" stroke="rgba(0,0,0,0)" stroke-linejoin="miter" stroke-linecap="butt"/></svg>